<?xml version="1.0" encoding="utf-8"?>
<!-- Generator: Adobe Illustrator 16.0.4, SVG Export Plug-In . SVG Version: 6.00 Build 0)  -->
<!DOCTYPE svg PUBLIC "-//W3C//DTD SVG 1.1//EN" "http://www.w3.org/Graphics/SVG/1.1/DTD/svg11.dtd">
<svg version="1.1" id="Layer_2_1_" xmlns="http://www.w3.org/2000/svg" xmlns:xlink="http://www.w3.org/1999/xlink" x="0px" y="0px"
	 width="45.354px" height="45.354px" viewBox="0 0 45.354 45.354" enable-background="new 0 0 45.354 45.354" xml:space="preserve">
<g>
	<path d="M42.223,27.983c0.009-0.033,0.019-0.066,0.028-0.1c-0.29-0.334-0.576-0.67-0.87-1c-0.234-0.262-0.536-0.408-0.884-0.441
		c-1.225-0.117-2.45-0.236-3.678-0.334c-0.57-0.046-1.143-0.045-1.72-0.066c-0.009-0.03-0.02-0.058-0.023-0.084
		c-0.083-0.571-0.293-0.8-0.865-0.852c-0.557-0.052-1.117-0.052-1.675-0.091c-0.164-0.012-0.292,0.016-0.438,0.102
		c-0.161,0.095-0.354,0.154-0.541,0.182c-0.271,0.041-0.384-0.069-0.454-0.336c-0.017-0.061-0.093-0.13-0.155-0.147
		c-0.233-0.067-0.472-0.124-0.71-0.167c-0.094-0.016-0.206-0.004-0.294,0.033c-0.288,0.125-0.701,0.028-0.782-0.231
		c-0.057-0.18-0.169-0.246-0.314-0.311c-0.118-0.053-0.227-0.127-0.348-0.168c-0.076-0.025-0.174-0.027-0.253-0.006
		c-0.171,0.048-0.333,0.133-0.505,0.174c-0.217,0.052-0.32-0.037-0.307-0.254c0.007-0.135,0.056-0.265,0.077-0.398
		c0.008-0.056,0.017-0.142-0.015-0.169c-0.248-0.213-0.505-0.417-0.76-0.623c-0.156,0.141-0.296,0.286-0.456,0.404
		c-0.154,0.114-0.321,0.226-0.5,0.283c-0.109,0.035-0.294,0.008-0.368-0.066c-0.073-0.075-0.089-0.253-0.062-0.371
		c0.029-0.141,0.116-0.278,0.202-0.397c0.154-0.212,0.327-0.411,0.495-0.618c-0.127-0.182-0.254-0.362-0.388-0.552
		c-0.145,0.097-0.275,0.194-0.417,0.275c-0.801,0.457-1.6,0.919-2.409,1.359c-0.169,0.091-0.383,0.119-0.578,0.137
		c-0.172,0.016-0.243-0.107-0.148-0.253c0.107-0.166,0.232-0.333,0.386-0.455c0.474-0.38,0.959-0.751,1.453-1.104
		c0.411-0.295,0.845-0.562,1.27-0.842c-0.011-0.044-0.016-0.08-0.027-0.113c-0.374-1.036-0.755-2.07-1.119-3.11
		c-0.119-0.342-0.226-0.694-0.286-1.05c-0.121-0.722-0.248-1.44-0.522-2.122c-0.157-0.395-0.347-0.77-0.661-1.069
		c-0.494-0.471-1.203-0.44-1.621,0.1c-0.163,0.211-0.286,0.465-0.372,0.718c-0.233,0.688-0.28,1.404-0.228,2.123
		c0.022,0.312-0.085,0.528-0.335,0.688c-0.09,0.058-0.185,0.11-0.282,0.155c-0.535,0.244-1.104,0.369-1.687,0.377
		c-1.074,0.017-2.148,0.001-3.223-0.001c-0.419-0.002-0.813-0.095-1.205-0.256c-0.528-0.217-1.078-0.381-1.615-0.578
		c-0.373-0.137-0.668-0.02-0.937,0.24C11,16.69,10.961,16.785,11.031,16.9c0.171,0.28,0.314,0.588,0.532,0.826
		c0.576,0.628,1.194,1.218,1.777,1.839c0.342,0.365,0.673,0.745,0.962,1.152c0.161,0.227,0.327,0.434,0.558,0.582
		c0.496,0.315,0.997,0.621,1.494,0.934c0.372,0.234,0.463,0.463,0.36,0.892c-0.034,0.145-0.076,0.287-0.111,0.426
		c0.033,0.026,0.047,0.044,0.065,0.051c0.04,0.018,0.081,0.035,0.123,0.042c0.683,0.106,1.107,0.47,1.24,1.175
		c0.069,0.371,0.329,0.638,0.702,0.707c0.354,0.065,0.721,0.061,1.082,0.077c0.334,0.016,0.678-0.03,1,0.039
		c0.5,0.109,0.679,0.531,0.456,0.993c-0.112,0.23-0.259,0.445-0.407,0.655c-0.377,0.532-0.766,1.055-1.143,1.586
		c-0.084,0.119-0.134,0.261-0.209,0.407c0.112,0.01,0.19,0.021,0.269,0.023c2.621,0.073,5.24,0.157,7.862,0.211
		c1.268,0.026,2.536-0.004,3.804-0.008c1.974-0.007,3.938-0.119,5.876-0.523C38.955,28.645,40.59,28.317,42.223,27.983 M10.4,32.165
		c0.145,0.016,0.272,0.038,0.399,0.044c1.982,0.086,3.963,0.192,5.946,0.247c2.228,0.061,4.457,0.097,6.685,0.1
		c2.277,0.002,4.557-0.034,6.835-0.086c1.224-0.026,2.449-0.082,3.668-0.191c2.27-0.202,4.522-0.539,6.75-1.021
		c0.676-0.146,1.33-0.384,1.994-0.582c0.247-0.074,0.359-0.237,0.329-0.5c-0.045-0.384-0.062-0.771-0.129-1.15
		c-0.091-0.514-0.109-0.513-0.614-0.431c-0.05,0.009-0.101,0.015-0.148,0.025c-1.544,0.345-3.085,0.699-4.632,1.031
		c-1.339,0.285-2.688,0.535-4.058,0.581c-1.302,0.043-2.607,0.038-3.911,0.019c-2.042-0.03-4.082-0.073-6.121-0.146
		c-1.597-0.057-3.192-0.155-4.786-0.25c-1.33-0.079-2.659-0.175-3.987-0.271c-1.015-0.075-2.028-0.159-3.041-0.246
		c-0.398-0.035-0.794-0.092-1.218-0.143C10.28,30.189,10.276,31.17,10.4,32.165 M9.741,27.351c0.214,0.397,0.417,0.781,0.629,1.16
		c0.024,0.044,0.099,0.078,0.155,0.084c0.376,0.048,0.753,0.096,1.131,0.128c1.747,0.151,3.494,0.306,5.242,0.444
		c0.683,0.055,1.369,0.071,2.051,0.105c0.187-0.603,0.558-1.069,0.907-1.55c0.306-0.423,0.615-0.844,0.904-1.277
		c0.117-0.176,0.075-0.277-0.134-0.298c-0.281-0.025-0.568-0.007-0.851,0.015c-0.866,0.065-1.815-0.107-2.205-0.976
		C15.069,26.259,12.404,26.739,9.741,27.351 M15.997,22.658c-0.465-0.291-0.917-0.544-1.334-0.844
		c-0.233-0.168-0.427-0.246-0.682-0.076c-0.081,0.054-0.186,0.073-0.281,0.104c-1.21,0.405-2.464,0.509-3.729,0.522
		c-1.746,0.021-3.478-0.136-5.197-0.429c-0.276-0.047-0.343,0.021-0.3,0.308c0.005,0.027,0.013,0.056,0.021,0.083
		c0.327,1.149,1.113,1.835,2.224,2.185c0.104,0.033,0.228,0.029,0.339,0.017c0.86-0.103,1.722-0.198,2.58-0.321
		c1.624-0.23,3.241-0.498,4.823-0.941C14.983,23.119,15.498,22.949,15.997,22.658 M2.937,18.729
		c-0.004,0.013-0.012,0.031-0.014,0.051c-0.102,1.111,0.88,2.459,1.993,2.623c1.224,0.18,2.458,0.304,3.693,0.395
		c1.397,0.104,2.794,0.044,4.168-0.26c0.392-0.087,0.773-0.223,1.193-0.346c-0.4-0.68-0.934-1.158-1.43-1.67
		c-1.141,0.58-2.348,0.776-3.596,0.748c-1.343-0.029-2.646-0.296-3.912-0.733C4.331,19.296,3.646,19.005,2.937,18.729
		 M16.106,23.264c-2.896,1.133-5.968,1.401-9.011,1.824c-0.065,0.415,0.125,0.713,0.416,0.961c0.452,0.386,0.996,0.59,1.561,0.729
		c0.193,0.048,0.41,0.042,0.609,0.013c0.36-0.054,0.716-0.139,1.073-0.218c1.822-0.404,3.646-0.81,5.415-1.417
		c0.417-0.143,0.818-0.327,1.216-0.488c-0.02-0.241-0.161-0.318-0.308-0.374c-0.18-0.068-0.37-0.109-0.553-0.17
		c-0.342-0.112-0.479-0.327-0.442-0.687C16.087,23.375,16.099,23.312,16.106,23.264 M1.853,16.104
		c-0.012,0.025-0.023,0.05-0.035,0.077c0.06,0.095,0.11,0.195,0.179,0.282c0.161,0.202,0.35,0.384,0.492,0.598
		c0.191,0.288,0.346,0.601,0.522,0.9c0.053,0.089,0.107,0.204,0.192,0.246c1.217,0.605,2.493,1.044,3.827,1.308
		c1.319,0.26,2.643,0.339,3.962,0.004c0.38-0.096,0.749-0.24,1.142-0.369c-0.334-0.358-0.638-0.663-0.916-0.989
		c-0.119-0.14-0.221-0.171-0.399-0.133c-1.475,0.324-2.956,0.359-4.426-0.015c-1.056-0.27-2.062-0.652-2.853-1.452
		c-0.029-0.029-0.072-0.047-0.112-0.06c-0.357-0.123-0.713-0.256-1.077-0.359C2.195,16.097,2.02,16.115,1.853,16.104 M10.479,16.986
		c-0.181,0.012-0.352,0.032-0.522,0.031c-1.174-0.002-2.248-0.355-3.27-0.915c-0.558-0.305-1.13-0.588-1.712-0.842
		c-0.316-0.139-0.664-0.222-1.006-0.284c-0.263-0.049-0.354,0.063-0.285,0.321c0.165,0.62,0.407,1.194,1.041,1.493
		c0.188,0.087,0.367,0.194,0.557,0.277c1.57,0.687,3.205,0.805,4.88,0.541c0.18-0.028,0.358-0.067,0.551-0.105
		c-0.053-0.104-0.093-0.18-0.128-0.258C10.55,17.166,10.52,17.086,10.479,16.986"/>
	<path d="M42.223,27.983c-1.633,0.334-3.268,0.662-4.9,1.003c-1.938,0.404-3.902,0.517-5.876,0.523
		c-1.268,0.004-2.536,0.034-3.804,0.008c-2.622-0.054-5.242-0.138-7.862-0.211c-0.079-0.002-0.157-0.014-0.269-0.023
		c0.075-0.146,0.125-0.288,0.209-0.407c0.376-0.531,0.766-1.054,1.143-1.586c0.148-0.21,0.295-0.425,0.407-0.655
		c0.223-0.462,0.044-0.884-0.456-0.993c-0.322-0.069-0.666-0.023-1-0.039c-0.361-0.017-0.728-0.012-1.082-0.077
		c-0.373-0.069-0.633-0.336-0.703-0.707c-0.131-0.706-0.556-1.068-1.24-1.175c-0.041-0.007-0.082-0.024-0.122-0.042
		c-0.018-0.007-0.032-0.024-0.065-0.051c0.036-0.139,0.077-0.281,0.111-0.426c0.103-0.429,0.012-0.657-0.36-0.892
		c-0.497-0.312-0.998-0.618-1.494-0.934c-0.231-0.147-0.396-0.354-0.558-0.582c-0.289-0.407-0.621-0.788-0.962-1.152
		c-0.583-0.622-1.201-1.211-1.777-1.839c-0.218-0.238-0.361-0.546-0.532-0.826c-0.071-0.114-0.031-0.21,0.065-0.303
		c0.269-0.259,0.564-0.376,0.937-0.24c0.537,0.197,1.086,0.361,1.615,0.578c0.392,0.161,0.786,0.254,1.205,0.256
		c1.074,0.002,2.149,0.018,3.223,0.001c0.583-0.009,1.152-0.133,1.687-0.376c0.097-0.045,0.191-0.098,0.282-0.156
		c0.25-0.161,0.358-0.377,0.335-0.688c-0.052-0.719-0.005-1.436,0.228-2.123c0.086-0.253,0.209-0.507,0.372-0.718
		c0.418-0.541,1.127-0.571,1.621-0.1c0.313,0.299,0.504,0.675,0.662,1.069c0.273,0.682,0.4,1.4,0.521,2.122
		c0.061,0.356,0.166,0.708,0.286,1.05c0.364,1.04,0.745,2.074,1.119,3.11c0.012,0.033,0.017,0.068,0.027,0.113
		c-0.425,0.28-0.858,0.547-1.27,0.842c-0.494,0.354-0.979,0.725-1.453,1.104c-0.153,0.122-0.279,0.289-0.386,0.455
		c-0.095,0.146-0.023,0.269,0.148,0.253c0.195-0.018,0.409-0.046,0.578-0.137c0.81-0.44,1.608-0.902,2.409-1.359
		c0.142-0.081,0.272-0.179,0.417-0.274c0.134,0.188,0.261,0.369,0.388,0.551c-0.168,0.207-0.341,0.406-0.495,0.618
		c-0.086,0.119-0.173,0.257-0.203,0.397c-0.025,0.118-0.01,0.296,0.063,0.371c0.074,0.074,0.259,0.102,0.368,0.066
		c0.179-0.058,0.346-0.169,0.5-0.283c0.16-0.118,0.3-0.264,0.456-0.404c0.255,0.206,0.513,0.41,0.76,0.623
		c0.031,0.027,0.022,0.113,0.015,0.169c-0.021,0.134-0.07,0.264-0.077,0.398c-0.013,0.217,0.09,0.306,0.307,0.254
		c0.172-0.041,0.334-0.126,0.505-0.174c0.079-0.021,0.177-0.02,0.253,0.006c0.121,0.041,0.229,0.115,0.348,0.168
		c0.146,0.064,0.258,0.131,0.314,0.311c0.081,0.26,0.494,0.356,0.782,0.231c0.088-0.037,0.2-0.049,0.294-0.033
		c0.238,0.043,0.477,0.1,0.71,0.167c0.062,0.018,0.139,0.087,0.155,0.147c0.07,0.267,0.183,0.377,0.454,0.336
		c0.187-0.027,0.38-0.087,0.541-0.182c0.146-0.086,0.273-0.113,0.438-0.102c0.558,0.039,1.118,0.039,1.675,0.091
		c0.572,0.052,0.782,0.28,0.865,0.852c0.004,0.026,0.015,0.054,0.023,0.084c0.577,0.021,1.149,0.021,1.72,0.066
		c1.228,0.098,2.453,0.217,3.678,0.334c0.348,0.033,0.649,0.18,0.884,0.441c0.294,0.33,0.58,0.666,0.87,1
		C42.241,27.916,42.232,27.949,42.223,27.983 M22.569,16.682c-0.285-0.007-0.509,0.204-0.513,0.485
		c-0.004,0.284,0.209,0.505,0.492,0.508c0.272,0.002,0.493-0.206,0.503-0.476C23.061,16.916,22.849,16.689,22.569,16.682
		 M23.528,18.999c-0.248-0.003-0.435,0.186-0.434,0.433c0.001,0.246,0.194,0.436,0.438,0.433c0.234-0.004,0.418-0.188,0.423-0.425
		C23.959,19.191,23.775,19,23.528,18.999"/>
	<path d="M10.401,32.165c-0.125-0.995-0.121-1.977-0.04-2.971c0.424,0.051,0.82,0.107,1.218,0.143
		c1.013,0.087,2.026,0.171,3.041,0.246c1.328,0.097,2.657,0.192,3.987,0.271c1.594,0.095,3.188,0.194,4.785,0.25
		c2.04,0.072,4.081,0.115,6.122,0.146c1.304,0.02,2.609,0.024,3.911-0.019c1.37-0.046,2.719-0.296,4.058-0.581
		c1.547-0.332,3.088-0.687,4.632-1.031c0.049-0.011,0.099-0.018,0.148-0.025c0.505-0.082,0.523-0.083,0.614,0.431
		c0.066,0.379,0.084,0.767,0.129,1.15c0.031,0.263-0.082,0.426-0.329,0.5c-0.664,0.198-1.318,0.436-1.994,0.582
		c-2.228,0.482-4.48,0.819-6.75,1.021c-1.219,0.109-2.444,0.165-3.668,0.191c-2.278,0.052-4.558,0.089-6.835,0.086
		c-2.229-0.003-4.457-0.039-6.685-0.1c-1.982-0.055-3.964-0.161-5.946-0.247C10.672,32.203,10.545,32.181,10.401,32.165"/>
	<path d="M9.741,27.351c2.663-0.612,5.328-1.092,7.83-2.163c0.388,0.867,1.339,1.04,2.204,0.975c0.283-0.021,0.57-0.04,0.851-0.015
		c0.209,0.021,0.251,0.122,0.134,0.298c-0.29,0.434-0.598,0.855-0.904,1.277c-0.349,0.48-0.72,0.947-0.907,1.55
		c-0.683-0.034-1.368-0.051-2.051-0.105c-1.748-0.139-3.496-0.293-5.242-0.444c-0.378-0.032-0.755-0.079-1.131-0.128
		c-0.056-0.006-0.13-0.04-0.155-0.084C10.157,28.132,9.955,27.748,9.741,27.351"/>
	<path d="M15.997,22.658c-0.5,0.291-1.014,0.461-1.537,0.607c-1.582,0.443-3.2,0.711-4.823,0.941
		c-0.858,0.123-1.72,0.219-2.58,0.321c-0.111,0.013-0.234,0.017-0.338-0.017c-1.11-0.35-1.896-1.035-2.224-2.184
		c-0.008-0.028-0.016-0.057-0.02-0.084c-0.043-0.286,0.023-0.354,0.3-0.308c1.72,0.293,3.452,0.449,5.197,0.43
		c1.265-0.015,2.519-0.118,3.729-0.523c0.095-0.031,0.2-0.051,0.281-0.104c0.255-0.17,0.449-0.092,0.682,0.076
		C15.081,22.115,15.532,22.367,15.997,22.658"/>
	<path d="M2.937,18.728c0.709,0.276,1.394,0.568,2.096,0.81c1.266,0.436,2.569,0.704,3.912,0.732
		c1.249,0.028,2.456-0.168,3.596-0.748c0.496,0.511,1.03,0.99,1.43,1.67c-0.419,0.123-0.801,0.259-1.192,0.346
		c-1.375,0.304-2.771,0.363-4.169,0.26c-1.234-0.091-2.469-0.215-3.693-0.395c-1.113-0.163-2.095-1.512-1.993-2.623
		C2.925,18.76,2.933,18.742,2.937,18.728"/>
	<path d="M16.106,23.264c-0.007,0.048-0.019,0.111-0.025,0.175c-0.036,0.359,0.1,0.573,0.442,0.686
		c0.183,0.061,0.373,0.102,0.553,0.17c0.147,0.056,0.289,0.133,0.308,0.374c-0.398,0.161-0.8,0.346-1.216,0.488
		c-1.769,0.607-3.592,1.013-5.415,1.417c-0.356,0.079-0.712,0.164-1.073,0.218c-0.199,0.029-0.417,0.035-0.609-0.013
		c-0.565-0.14-1.109-0.344-1.561-0.729c-0.291-0.247-0.48-0.546-0.416-0.961C10.138,24.665,13.21,24.397,16.106,23.264"/>
	<path d="M1.853,16.104c0.167,0.011,0.342-0.007,0.499,0.037c0.364,0.104,0.719,0.237,1.077,0.359
		c0.04,0.013,0.083,0.031,0.112,0.06c0.791,0.799,1.796,1.182,2.853,1.451c1.471,0.375,2.951,0.34,4.426,0.016
		c0.178-0.039,0.279-0.007,0.399,0.133c0.278,0.326,0.582,0.631,0.916,0.989c-0.394,0.129-0.762,0.273-1.142,0.369
		c-1.32,0.334-2.643,0.256-3.962-0.004c-1.333-0.263-2.61-0.703-3.826-1.308c-0.085-0.042-0.139-0.156-0.192-0.246
		c-0.177-0.299-0.332-0.612-0.523-0.9c-0.142-0.214-0.33-0.396-0.491-0.597c-0.069-0.087-0.12-0.188-0.179-0.284
		C1.829,16.155,1.841,16.13,1.853,16.104"/>
	<path d="M10.479,16.986c0.041,0.101,0.07,0.181,0.105,0.259c0.035,0.078,0.076,0.153,0.128,0.258
		c-0.193,0.038-0.371,0.077-0.551,0.105c-1.676,0.264-3.31,0.146-4.88-0.541c-0.19-0.083-0.369-0.189-0.557-0.277
		c-0.634-0.298-0.875-0.873-1.041-1.493c-0.069-0.258,0.021-0.37,0.285-0.321c0.342,0.062,0.689,0.145,1.006,0.284
		c0.582,0.254,1.154,0.537,1.712,0.842c1.022,0.56,2.095,0.913,3.27,0.915C10.128,17.018,10.299,16.997,10.479,16.986"/>
	<path d="M22.569,16.682c0.28,0.007,0.492,0.234,0.481,0.518c-0.01,0.27-0.229,0.478-0.503,0.476
		c-0.283-0.003-0.496-0.225-0.492-0.508C22.06,16.885,22.282,16.675,22.569,16.682"/>
	<path d="M23.528,18.999c0.247,0.001,0.432,0.192,0.427,0.44c-0.005,0.237-0.188,0.421-0.423,0.425
		c-0.243,0.003-0.437-0.187-0.438-0.433C23.093,19.184,23.28,18.996,23.528,18.999"/>
</g>
</svg>
